PathFileType	4	(X/Y/Z)	OpenSim_Sub09_CSBaseline_Accel.trc
DataRate	CameraRate	NumFrames	NumMarkers	Units	OrigDataRate	OrigDataStartFrame	OrigNumFrames
100	100	24	8	m	100	1461	5840
Frame#	Time	torso_imu_offset_imu	pelvis_imu_offset_imu	tibia_r_imu_offset_imu	femur_r_imu_offset_imu	tibia_l_imu_offset_imu	femur_l_imu_offset_imu	toes_r_imu_offset_imu	toes_l_imu_offset_imu
				X1	Y1	Z1	X2	Y2	Z2	X3	Y3	Z3	X4	Y4	Z4	X5	Y5	Z5	X6	Y6	Z6	X7	Y7	Z7	X8		Y8	Z8	

1461	14.60000000	8.16320146	1.06890029	6.51527022	8.76143953	-1.74612232	2.51071202	7.48318313	6.77355563	1.99223027	7.45053790	-0.14099369	3.00429923	9.18266490	-2.57502773	0.11062844	9.53687306	3.12668438	-0.76399482	6.18251768	2.60486536	11.17832184	5.10693249	1.91670201	10.94256280
1462	14.61000000	8.16414183	1.16963149	6.50899462	8.85116592	-1.82209787	2.51668906	7.53181657	5.88638705	1.90593011	7.33046600	0.00650183	2.84537001	9.42415081	-2.95346263	-0.36336776	9.41046879	3.44295943	-0.79739103	7.30848383	3.04197394	11.63424452	4.65068867	2.07870767	11.06173116
1463	14.62000000	8.10120329	1.22116124	6.53137704	8.85893271	-1.71559526	2.37184142	8.25971436	5.96643678	1.97006350	7.28719444	0.13637612	2.75541153	9.68797581	-2.88736472	-0.78247804	9.25801333	3.32707674	-0.72941734	8.84112527	2.47984023	12.22033684	4.66898988	2.22705433	10.90427283
1464	14.63000000	8.07716085	1.26544785	6.57781438	8.80372700	-1.63629962	2.33570634	9.39653447	6.50159197	1.59659167	7.16353577	0.28307493	2.79231471	9.86968176	-2.19075786	-0.80403323	9.08397660	3.11841543	-0.73051645	9.84670273	1.74938231	12.94470952	4.96079612	2.13042031	10.94309195
1465	14.64000000	8.18362208	1.34343065	6.54968899	8.83534906	-1.50194426	2.23569256	10.53953420	6.40875507	0.36515647	7.12448838	0.03758839	3.00631679	10.19630467	-1.21897157	-0.95906773	8.98051536	2.86559075	-0.82826094	10.62965855	1.41850212	13.78930674	5.15070755	2.01482288	10.75613733
1466	14.65000000	8.29309351	1.36066841	6.55216747	8.84807682	-1.37636870	2.18574933	11.30213319	5.76962101	-0.41895613	7.08469210	-0.43876472	3.20902846	10.35474946	-0.39997113	-0.68734692	8.87181325	2.47192778	-0.94080679	11.75904545	1.34950929	14.16054581	4.79933010	2.10030495	10.83511675
1467	14.66000000	8.38179352	1.40454854	6.55616748	8.84970304	-1.32203314	2.20166433	11.33472187	5.01240270	0.10912476	7.32438461	-0.89384174	3.41985207	10.27234866	0.01589947	-0.76371670	8.91382590	2.08708336	-1.16564964	12.71983703	1.40718259	14.23492536	4.76104450	2.37666614	11.04726284
1468	14.67000000	8.50806210	1.37595924	6.54444397	8.91462696	-1.35893400	2.24122373	10.63249383	4.43221582	0.71138362	7.55763866	-1.47102246	3.62364923	10.17134206	0.03987608	-0.66889411	8.99695029	1.83970621	-1.32235384	13.82866937	1.13164301	14.10938615	5.01358178	2.25964648	10.92876862
1469	14.68000000	8.63793193	1.31467264	6.52248487	8.99966787	-1.50235694	2.18524053	10.10142450	4.01918661	1.43080768	7.82342588	-2.04404398	3.82167391	10.14465763	-0.23878208	-0.60130607	9.11058753	1.67154039	-1.46805595	15.19346780	-0.19624697	13.44654423	4.95939644	2.33179350	10.91863932
1470	14.69000000	8.69892111	1.22545922	6.59624452	9.00066321	-1.66967995	2.12020197	10.54847460	3.96970292	2.71180092	8.08122330	-2.71603093	3.82369227	10.20020492	-0.81741292	-0.74560292	9.27240485	1.61610196	-1.56699594	15.97310701	-1.25668918	13.06351040	4.90973293	2.05554636	11.06345402
1471	14.70000000	8.76120874	1.22467178	6.53744667	9.06499479	-1.87926896	2.04964519	11.80535196	3.69276394	2.23059602	8.30752297	-3.44568903	3.75487739	10.46837890	-1.00712400	-0.77749566	9.48062214	1.54240883	-1.67480658	16.57562568	-1.81576519	12.36895835	4.66859650	2.27587784	11.29829048
1472	14.71000000	8.81493708	1.21798611	6.59112377	9.16053846	-1.98891645	2.10915272	12.35754515	3.67873601	2.50813792	8.58061089	-3.95299276	3.73718153	10.33336461	-1.04695794	-0.73851300	9.63155588	1.51361008	-1.76171434	16.45846516	-2.50303836	11.10287849	4.75015008	2.38061821	11.16127807
1473	14.72000000	8.89628445	1.14614675	6.60075753	9.25765811	-2.10826129	2.06431112	11.49350331	3.36159309	3.27397144	8.91023254	-4.33311868	3.79207548	10.26163577	-0.99154726	-0.57493242	9.71518161	1.54699464	-1.77824348	15.14123224	-3.10109931	9.58589053	4.99742439	2.37991128	11.08346646
1474	14.73000000	8.93893011	1.14157306	6.62826263	9.29826112	-2.07381980	2.05504626	9.98357599	2.87123681	3.16704988	9.29371908	-4.59907725	4.00485420	10.17626811	-0.90057732	-0.27226147	9.78396453	1.48001647	-1.69773460	13.44311290	-2.95888024	8.26573369	5.29231042	2.11383113	10.96503048
1475	14.74000000	8.92109431	1.14806128	6.62457887	9.35554181	-2.01883338	2.03380926	9.06608538	2.66666429	3.15872566	9.66414323	-4.87251139	4.21180530	10.10447455	-1.05211586	0.05069436	9.64038723	1.30052694	-1.61723211	12.56417586	-2.77483267	7.42137415	4.83306274	2.00898887	11.21425004
1476	14.75000000	8.89773142	1.09013324	6.60557193	9.36189896	-1.94768420	2.03501438	9.03391641	2.18334316	3.11154568	10.03781757	-5.14281511	4.41417604	10.10271815	-1.50818814	0.07391377	9.53754039	1.20790586	-1.58419689	12.17537841	-2.72134379	6.53770401	4.64504201	1.84748709	11.34599584
1477	14.76000000	8.84561345	1.03185721	6.58138933	9.31948410	-1.76897435	2.02025440	9.18090192	1.49493345	3.21148077	10.20693640	-5.24829246	4.55284115	10.21526376	-1.70032941	-0.16734708	9.58658629	1.27912675	-1.44642342	11.90760227	-2.43039428	5.51752142	5.05468376	1.75359552	11.22825012
1478	14.77000000	8.86721429	0.99012413	6.59808304	9.28594083	-1.68352551	2.04007998	9.00163317	0.58581159	2.83113508	10.14485920	-5.09601160	4.62689061	10.11727481	-1.79090088	-0.33837813	9.65886681	1.31712027	-1.39968719	11.46645568	-0.63108392	4.73431395	5.28286132	1.86947016	11.08519711
1479	14.78000000	8.87963677	1.01630308	6.67576559	9.22185858	-1.78280591	2.05490360	8.85280438	-0.65651433	2.06165980	9.74116142	-4.76625550	4.75728833	10.00135387	-2.00717308	-0.33178889	9.61990004	1.42154092	-1.32085520	10.80749501	1.45067182	3.86740315	4.85232334	1.99692018	11.17039601
1480	14.79000000	8.84527612	1.03377647	6.72723050	9.14625976	-1.94361102	2.12361182	8.83699172	-1.99305101	1.77170037	9.20795792	-4.63782680	5.06375605	9.90457638	-2.08821801	-0.42766624	9.51588949	1.35765158	-1.46470961	10.99931851	1.94999182	2.33072171	4.59206449	2.37759405	11.37267266
1481	14.80000000	8.85205247	1.01918055	6.71076127	9.03911660	-2.04124326	2.22763182	8.72590334	-3.37914850	2.44180426	8.67345355	-4.81619969	5.55412760	9.92500292	-1.98884406	-0.39354101	9.45510729	1.31084695	-1.56759321	11.81185566	1.58979293	0.39120094	4.85394623	2.40060446	11.20551337
1482	14.81000000	8.80914616	1.04341814	6.65654160	8.95019410	-2.13824788	2.26350582	8.23302359	-4.59530531	3.44928637	8.25078302	-5.10456895	6.05174855	9.86430063	-1.67440556	-0.22453146	9.45176804	1.24136851	-1.62938876	12.39602274	1.95368244	-1.15366548	4.89521381	2.06580548	11.21665062
1483	14.82000000	8.85648510	1.13661786	6.63845670	8.86563786	-2.31183367	2.18503523	7.51363017	-5.20547504	3.82763277	8.25335406	-5.38613830	6.32091395	10.05721343	-1.24916556	-0.27937614	9.44445098	1.04602469	-1.77670543	12.61234008	2.39558855	-2.06452497	5.03524122	1.61218945	11.18122447
1484	14.83000000	8.90918838	1.20333643	6.61679739	8.84015661	-2.46575681	2.00592344	7.11699697	-4.64140817	3.75533734	8.51208901	-5.75667081	6.49246645	10.11067179	-1.17347921	-0.24757193	9.49178343	0.75248909	-1.95956703	12.04780382	2.43224920	-2.04955798	4.71428758	1.68591790	11.40583367
